 <svg  version="1.0" xmlns="http://www.w3.org/2000/svg"  width="512.000000pt" height="512.000000pt" viewBox="0 0 512.000000 512.000000"  preserveAspectRatio="xMidYMid meet">  <g transform="translate(0.000000,512.000000) scale(0.100000,-0.100000)" fill="#fafafa" stroke="none"> <path d="M2096 5110 c-343 -54 -631 -266 -782 -574 -45 -95 -64 -170 -64 -262 0 -76 27 -219 57 -303 24 -69 25 -75 10 -101 -85 -144 14 -361 176 -387 37 -5 41 -10 68 -69 15 -35 46 -90 67 -121 50 -74 167 -184 236 -224 l54 -30 -19 -67 c-10 -37 -21 -72 -23 -78 -2 -6 -30 -16 -62 -23 -78 -17 -505 -135 -569 -156 -183 -62 -268 -143 -321 -305 -16 -48 -18 -103 -22 -441 -4 -460 -12 -431 115 -439 l78 -5 3 -237 2 -238 -50 0 c-41 0 -56 -5 -75 -25 -23 -22 -25 -31 -25 -126 0 -56 6 -120 12 -143 16 -52 72 -108 124 -124 60 -17 2268 -17 2328 0 52 16 108 72 124 124 6 23 12 87 12 143 0 95 -2 104 -25 126 -19 20 -34 25 -75 25 l-50 0 2 238 3 237 78 5 c124 8 117 -16 117 399 0 190 -5 374 -10 409 -30 185 -119 295 -294 361 -87 33 -322 100 -531 152 -71 17 -133 35 -136 38 -4 3 -16 39 -27 79 l-20 72 68 44 c123 80 228 203 281 330 22 53 22 54 73 61 149 19 246 122 246 260 0 75 -13 118 -51 166 l-28 37 19 98 c53 276 50 365 -14 500 -127 268 -379 474 -672 550 -111 29 -304 40 -408 24z m369 -160 c232 -60 429 -208 552 -415 79 -132 84 -175 47 -400 -22 -134 -18 -126 -77 -123 l-51 3 -43 114 c-97 258 -187 361 -315 361 -95 0 -152 -39 -238 -160 -133 -188 -375 -290 -691 -290 -44 0 -70 -5 -78 -14 -6 -7 -30 -16 -54 -19 -23 -2 -49 -6 -57 -8 -27 -7 -62 140 -63 267 l-2 111 52 104 c128 258 357 430 646 485 97 18 269 11 372 -16z m180 -642 c47 -56 82 -130 146 -313 52 -149 52 -151 53 -275 1 -107 -3 -136 -24 -200 -63 -194 -247 -360 -442 -400 -72 -14 -193 -14 -266 0 -120 24 -258 112 -342 217 -48 61 -103 177 -119 251 -14 67 -14 210 0 266 l10 42 127 12 c70 6 163 21 207 32 172 45 335 150 437 279 90 116 107 131 144 131 26 0 40 -9 69 -42z m405 -454 c79 -47 80 -178 0 -219 -56 -29 -60 -24 -60 73 0 48 -3 104 -6 125 -6 33 -5 37 16 37 12 0 34 -7 50 -16z m-1548 -106 c-2 -62 -6 -115 -8 -117 -2 -3 -15 6 -29 19 -33 31 -46 80 -33 126 9 35 48 84 65 84 4 0 6 -51 5 -112z m666 -777 c74 -7 197 -1 254 14 25 6 28 4 42 -46 9 -29 16 -61 16 -71 0 -12 -38 -43 -111 -92 l-111 -74 -118 76 c-66 43 -119 84 -119 93 -1 8 6 39 15 68 13 44 18 51 35 46 10 -4 54 -10 97 -14z m-143 -283 c52 -35 95 -66 95 -70 0 -14 -111 -81 -119 -72 -4 5 -36 49 -71 98 -49 69 -60 90 -49 97 27 17 50 8 144 -53z m593 56 c13 -4 21 -12 18 -19 -7 -19 -127 -185 -134 -185 -7 0 -112 72 -112 77 0 4 194 133 200 133 3 0 15 -3 28 -6z m-829 -143 c39 -55 71 -105 71 -110 0 -8 -98 -11 -312 -11 l-311 0 -43 -25 c-23 -14 -53 -42 -66 -62 -23 -37 -23 -43 -28 -378 l-5 -340 -25 0 -25 0 0 325 c0 374 5 408 76 484 50 55 116 84 315 140 87 25 182 51 209 59 28 8 55 15 62 16 6 1 43 -44 82 -98z m1181 50 c290 -78 354 -105 413 -170 66 -74 72 -111 72 -481 l0 -325 -25 0 -25 0 -5 340 c-5 335 -5 341 -28 378 -13 20 -43 48 -66 62 l-43 25 -307 0 c-271 0 -307 2 -302 15 12 34 141 205 151 201 5 -2 80 -22 165 -45z m-685 -137 c38 -25 30 -34 -30 -34 -62 0 -68 7 -27 32 33 21 28 21 57 2z m963 -186 c9 -9 12 -166 12 -645 l0 -633 -1010 0 -1010 0 0 633 c0 479 3 636 12 645 17 17 1979 17 1996 0z m162 -1473 c0 -42 -5 -60 -20 -75 -20 -20 -33 -20 -1140 -20 -1107 0 -1120 0 -1140 20 -15 15 -20 33 -20 75 l0 55 1160 0 1160 0 0 -55z"/> <path d="M2175 1914 c-50 -18 -102 -67 -126 -119 -51 -110 8 -247 128 -295 54 -21 146 -9 196 26 54 37 97 119 97 183 -1 89 -64 175 -149 206 -53 18 -93 18 -146 -1z m108 -135 c26 -12 47 -47 47 -80 0 -31 -44 -69 -80 -69 -36 0 -80 38 -80 69 0 31 20 68 44 79 28 14 40 14 69 1z"/> </g> </svg> 